<?xml version="1.0" encoding="UTF-8" standalone="no"?>
<!-- Created with Inkscape (http://www.inkscape.org/) -->

<svg
   version="1.1"
   id="svg1509"
   xml:space="preserve"
   width="1331.5364"
   height="1330.5096"
   sodipodi:docname="Arduino.svg"
   inkscape:version="1.2.2 (b0a8486541, 2022-12-01)"
   xmlns:inkscape="http://www.inkscape.org/namespaces/inkscape"
   xmlns:sodipodi="http://sodipodi.sourceforge.net/DTD/sodipodi-0.dtd"
   xmlns="http://www.w3.org/2000/svg"
   xmlns:svg="http://www.w3.org/2000/svg"><defs
     id="defs1513" /><sodipodi:namedview
     id="namedview1511"
     pagecolor="#ffffff"
     bordercolor="#000000"
     borderopacity="0.25"
     inkscape:showpageshadow="2"
     inkscape:pageopacity="0.0"
     inkscape:pagecheckerboard="0"
     inkscape:deskcolor="#d1d1d1"
     showgrid="false"
     inkscape:zoom="0.17737564"
     inkscape:cx="665.25482"
     inkscape:cy="668.0737"
     inkscape:window-width="1440"
     inkscape:window-height="900"
     inkscape:window-x="0"
     inkscape:window-y="0"
     inkscape:window-maximized="1"
     inkscape:current-layer="svg1509" /><inkscape:clipboard
     min="1549.2863,-37.690786"
     max="2880.8227,1292.8189"
     geom-min="1549.2863,-37.690786"
     geom-max="2880.8227,1292.8189" /><g
     id="g1515"
     transform="translate(-1549.2863,37.690786)"><path
       style="fill:#169ba1;fill-opacity:1;stroke-width:1.04348"
       d="m 2189.0361,1292.629 c -68.5309,-3.4181 -128.2698,-14.5674 -189.0503,-35.2833 -120.9595,-41.2267 -227.5749,-116.5688 -307.2827,-217.1481 -73.9565,-93.32194 -122.1893,-207.0187 -137.5427,-324.22236 -9.6771,-73.87148 -7.3995,-146.68709 6.847,-218.90818 44.4985,-225.58086 204.6221,-413.442316 420.9418,-493.8607781 44.9122,-16.6964479 88.4139,-27.7534259 136.1739,-34.6117409 39.2288,-5.633248 49.7777,-6.312739 97.5652,-6.284514 46.3097,0.02735 60.5813,0.953676 96.7217,6.277888 246.1349,36.2606369 451.6212,207.531475 532.6483,443.957405 17.0714,49.81173 28.3457,104.00538 33.4308,160.69566 1.7694,19.72673 1.7807,89.67127 0.018,108 -8.9332,92.85428 -30.4307,168.94762 -69.5723,246.26088 -78.5431,155.13974 -213.9912,273.23264 -378.0191,329.58264 -52.4118,18.0056 -108.0871,29.4926 -165.1397,34.0721 -13.8148,1.1089 -65.428,2.0865 -77.7392,1.4724 z M 2001.1246,863.39438 c 60.8937,-9.76972 113.3099,-37.73673 162.4192,-86.65987 18.5004,-18.43021 30.4639,-32.68766 49.8156,-59.3676 l 1.8009,-2.48277 8.2873,11.29466 c 49.7071,67.74455 107.7796,111.08083 174.6252,130.31308 20.5169,5.90293 49.4939,9.96984 70.9869,9.96293 75.3333,-0.0242 146.4025,-32.61072 193.4317,-88.69209 78.5487,-93.66746 72.1414,-230.74946 -14.827,-317.21739 -78.4152,-77.96413 -199.6767,-94.88481 -301.5848,-42.08276 -45.5146,23.58267 -90.5112,64.15209 -124.4097,112.16924 -7.3048,10.34733 -5.4506,10.68406 -14.8689,-2.70027 -13.5801,-19.29875 -37.8425,-46.50795 -55.9935,-62.79421 -46.5457,-41.76395 -96.0061,-65.99344 -152.3568,-74.63609 -19.7208,-3.02462 -53.7733,-3.26341 -71.8493,-0.50382 -31.9988,4.88507 -55.3298,12.10935 -81.3913,25.20227 -66.5759,33.4467 -114.4299,96.00863 -128.2395,167.65391 -9.1259,47.34583 -3.4268,96.22608 16.3672,140.37815 11.5374,25.73504 27.5782,48.61745 49.2123,70.20197 40.9961,40.90204 88.7228,63.77409 149.2686,71.53387 15.9327,2.04199 51.8552,1.22658 69.3059,-1.57321 z m -54.6081,-83.71269 c -50.2952,-3.47662 -98.2477,-31.95286 -125.5132,-74.5352 -16.6301,-25.97221 -25.1214,-61.97273 -21.7383,-92.16266 5.8054,-51.80417 36.2855,-95.578 83.5851,-120.04016 22.4897,-11.63116 44.6511,-17.45522 70.36,-18.49081 31.4348,-1.26625 56.6125,3.99645 85.5652,17.88512 39.3371,18.8701 76.8226,53.64888 107.4437,99.68561 9.5599,14.37267 20.3823,33.11398 20.3823,35.29635 0,3.47767 -18.7736,33.70611 -31.8243,51.24213 -53.5334,71.93166 -117.0399,106.0427 -188.2605,101.11962 z m 94.8675,-151.6581 v -24.52174 h -74.6087 -74.6087 v 24.52174 24.52174 h 74.6087 74.6087 z m 413.3064,151.77187 c -35.2069,-2.80224 -69.0452,-16.59055 -101.631,-41.41229 -13.4097,-10.21458 -37.1738,-33.82662 -49.1086,-48.79436 -15.1709,-19.02608 -40.306,-57.85742 -40.306,-62.26887 0,-1.7703 9.5608,-18.7773 17.3129,-30.79655 38.1168,-59.0986 88.3629,-100.92418 138.6871,-115.44505 18.9452,-5.4666 26.515,-6.42043 50.6087,-6.37694 25.3071,0.0457 34.4877,1.45769 54.415,8.3692 49.2477,17.08084 86.9887,55.3578 100.8941,102.32679 4.7423,16.01853 5.8705,24.33164 5.785,42.6262 -0.1191,25.4666 -4.7981,44.30036 -16.7463,67.40691 -7.514,14.53109 -16.4635,26.28158 -29.8013,39.12819 -34.3076,33.04409 -80.6896,49.17029 -130.1096,45.23677 z m 32.2587,-102.20665 v -25.04348 h 25.0435 25.0435 v -24.52174 -24.52174 h -25.0249 -25.025 l -0.2794,-25.30435 -0.2794,-25.30435 -24.2609,-0.2801 -24.2608,-0.2801 v 25.5659 25.56589 l -25.3044,0.27943 -25.3043,0.27942 v 24 24 l 25.3043,0.27942 25.3044,0.27942 v 25.02493 25.02493 h 24.5217 24.5217 z"
       id="path293" /><path
       style="fill:#ffffff;fill-opacity:1;stroke-width:5.65954"
       d="m 1918.5852,859.44264 c -129.1323,-21.32263 -223.794,-150.78292 -198.7856,-271.86135 33.2765,-161.10913 209.8113,-243.76285 358.8403,-168.00933 36.4665,18.53645 83.375,57.6181 111.249,92.68687 l 25.1137,31.59582 14.0107,-18.66276 c 75.3241,-100.3344 193.4978,-151.96838 294.5104,-128.68123 68.3732,15.76257 137.0534,69.40159 166.6795,130.17636 69.2727,142.10496 -24.3534,310.28826 -185.4338,333.10005 -92.312,13.073 -174.1392,-20.64963 -249.4266,-102.79358 l -39.0354,-42.59042 -48.4042,49.66352 c -77.7995,79.82354 -157.9099,110.46957 -249.318,95.37605 z m 109.875,-90.04896 c 17.3616,-6.4958 44.1234,-23.3482 60.6652,-38.20192 34.007,-30.53677 78.4797,-88.48845 78.4797,-102.26571 0,-13.62653 -37.2218,-66.71725 -67.3464,-96.05837 -14.3198,-13.94744 -42.5902,-33.13643 -62.8231,-42.64219 -70.1389,-32.9525 -148.9786,-19.33535 -198.3857,34.26509 -31.0167,33.64908 -41.1839,59.24188 -41.2044,103.71873 -0.029,63.4461 41.2585,122.74798 99.9365,143.53995 35.3191,12.51499 93.7481,11.46176 130.6782,-2.35558 z m 509.845,-1.70266 c 39.9137,-18.64022 61.9433,-38.9972 78.7936,-72.81124 28.6272,-57.44751 15.1281,-134.01579 -31.4093,-178.15655 -49.0555,-46.52912 -129.6853,-57.78041 -194.5325,-27.14555 -39.7528,18.77991 -95.0003,72.01242 -115.9522,111.72335 l -14.0805,26.68721 11.1266,21.33382 c 6.1196,11.7336 30.2834,40.68773 53.6973,64.34252 51.1773,51.70384 83.3609,66.63279 144.4425,67.00222 30.0232,0.18156 46.4693,-2.96062 67.9145,-12.97578 z"
       id="path1468" /><path
       style="fill:#ffffff;fill-opacity:1;stroke-width:5.65954"
       d="m 1895.947,628.20931 v -22.63818 h 70.7443 70.7443 v 22.63818 22.63817 h -70.7443 -70.7443 z"
       id="path1470" /><path
       id="path1472"
       style="fill:#ffffff;fill-opacity:1;stroke-width:5.65954"
       d="m 2439.2637,554.63477 v 25.46875 25.46679 h -25.4688 -25.4668 v 22.63867 22.63868 h 25.4668 25.4688 v 25.46875 25.46679 h 22.6367 22.6387 v -25.46679 -25.46875 h 25.4687 25.4668 v -22.63868 -22.63867 h -25.4668 -25.4687 v -25.46679 -25.46875 h -22.6387 z" /><path
       style="fill:#ffffff;fill-opacity:1;stroke-width:0.754516"
       d="m 2451.4232,865.38971 c -28.7825,-2.5364 -54.0086,-8.2978 -78.0647,-17.82924 -57.2479,-22.68252 -104.5488,-61.19503 -149.7227,-121.90449 -4.2459,-5.70603 -8.0293,-10.37459 -8.4075,-10.37459 -0.3783,0 -4.7737,5.42675 -9.7677,12.05944 -10.9787,14.58126 -22.355,28.33755 -30.5854,36.98411 -3.3576,3.52736 -7.1039,7.49262 -8.325,8.81167 -10.4081,11.24211 -35.9152,32.86282 -51.6412,43.77279 -39.1935,27.19068 -85.522,44.29804 -129.3205,47.75317 -14.8406,1.17073 -44.8522,0.96686 -55.3087,-0.37572 -58.8897,-7.56117 -106.4575,-30.63172 -147.6598,-71.61549 -38.8079,-38.60209 -61.6858,-85.59626 -67.9787,-139.63756 -1.5679,-13.46365 -1.5893,-38.80724 -0.044,-51.77101 7.7679,-65.16135 41.333,-123.1004 94.3553,-162.87355 34.9473,-26.21474 73.1224,-41.53559 120.7226,-48.44975 10.7023,-1.55457 53.3355,-1.28484 64.8884,0.41053 53.0841,7.79006 97.1164,27.37684 141.6468,63.00848 23.0915,18.47691 53.3088,50.95335 72.2585,77.66055 4.9496,6.97578 6.017,7.97885 7.7338,7.26723 0.5187,-0.21501 4.4247,-5.2291 8.6799,-11.14241 35.1583,-48.85845 82.1366,-89.58256 129.3443,-112.12497 35.3377,-16.87431 69.9312,-25.25131 108.2552,-26.21462 19.6035,-0.49275 33.0832,0.36941 49.8011,3.18526 53.3767,8.99042 99.9615,33.2861 137.6293,71.7787 52.2535,53.39778 76.0446,128.11017 63.993,200.96056 -11.769,71.14204 -54.9147,132.04877 -119.4584,168.6339 -28.8279,16.34041 -60.406,26.57131 -95.4894,30.93729 -11.6345,1.44785 -36.8983,2.02702 -47.5346,1.08972 z m 42.1265,-86.36713 c 59.0744,-8.23946 108.7972,-47.10825 129.4114,-101.16208 2.9224,-7.66338 6.1123,-19.84204 7.2931,-27.84477 1.3342,-9.04267 1.7682,-29.52454 0.8282,-39.08528 -0.996,-10.1303 -4.7848,-25.79691 -8.6742,-35.86807 -10.1646,-26.31936 -26.8131,-48.60817 -49.5079,-66.28078 -22.0899,-17.20152 -53.5934,-30.68364 -78.0924,-33.42003 -8.9027,-0.99439 -42.793,-0.98664 -50.9496,0.0116 -29.3298,3.5896 -65.053,19.75887 -93.163,42.16795 -28.4585,22.68689 -54.3287,52.59329 -74.9441,86.63664 -9.3408,15.42491 -12.4385,21.83403 -11.8866,24.59325 0.9308,4.65403 20.137,34.88197 33.541,52.78902 12.282,16.4082 37.4909,42.64351 52.9937,55.15153 16.2304,13.09505 40.941,27.11871 59.1483,33.56764 15.0522,5.33141 32.428,9.01892 47.9118,10.16791 7.398,0.54897 27.6807,-0.25163 36.0903,-1.42458 z m -503.5131,-1.01231 c 53.6777,-9.42987 99.9472,-40.39121 141.6655,-94.79582 13.2088,-17.22544 33.7301,-49.41589 34.901,-54.7468 0.5435,-2.47468 -0.4079,-4.481 -8.9234,-18.81624 -17.0365,-28.67984 -32.3568,-48.5527 -54.4152,-70.5848 -21.1342,-21.10909 -39.6318,-34.68686 -62.6754,-46.00557 -26.1973,-12.86778 -45.222,-17.87361 -72.0563,-18.95965 -30.3883,-1.22988 -58.3351,4.66017 -84.3252,17.7723 -37.8467,19.09381 -65.5391,50.65982 -78.2014,89.1402 -6.3443,19.28026 -8.8042,37.74073 -7.3738,55.33711 3.2013,39.37989 17.9671,70.89948 45.7477,97.6546 25.2834,24.3502 57.5277,40.1583 91.7477,44.98029 11.9075,1.67791 41.893,1.13525 53.9088,-0.97562 z"
       id="path1477" /><path
       style="fill:#ffffff;fill-opacity:1;stroke-width:0.754516"
       d="m 1892.3267,627.7575 v -24.14452 h 74.3199 74.3198 v 24.14452 24.14452 h -74.3198 -74.3199 z"
       id="path1479" /><path
       style="fill:#ffffff;fill-opacity:1;stroke-width:0.754516"
       d="m 2438.418,677.36695 -0.1988,-25.08767 -25.4649,-0.19866 -25.4649,-0.19867 V 628.12473 604.3675 l 13.7699,-0.002 c 7.5734,-10e-4 19.1175,-0.22431 25.6535,-0.49539 l 11.8837,-0.49289 V 578.21856 553.0604 h 23.7672 23.7673 v 17.91976 c 0,9.85587 0.2232,21.2302 0.4911,25.27629 l 0.4872,7.35653 h 24.7852 24.7852 v 24.14452 24.14452 h -24.899 -24.899 v 25.2763 25.27629 h -24.1344 -24.1343 l -0.1988,-25.08766 z"
       id="path1481" /></g><path
     style="fill:#ffffff;stroke-width:5.63775"
     d="M 352.12584,894.17643 C 259.10501,871.57754 190.63126,801.76104 171.50041,710.00896 135.96257,539.56854 300.75241,391.4149 475.30034,436.87886 c 54.49148,14.19323 88.38675,35.28479 140.85496,87.64792 l 49.56114,49.4619 49.09953,-49.00041 c 27.00472,-26.95023 61.9744,-55.80314 77.71033,-64.11758 155.352,-82.08365 336.0408,-0.44962 369.6727,167.01569 13.8527,68.97762 -16.037,155.01849 -71.443,205.65638 -79.5715,72.72389 -189.80156,87.52414 -289.83091,38.9147 -26.71568,-12.98253 -50.79841,-31.81262 -86.58445,-67.69962 L 664.7658,755.0431 623.33961,798.94356 c -22.7844,24.14526 -55.74952,52.51251 -73.25583,63.03833 -59.84331,35.98131 -133.23838,47.91779 -197.95794,32.19454 z M 495.44961,798.27244 C 531.29731,779.883 571.01152,741.67127 600.6141,697.08657 l 21.3292,-32.12411 -26.98669,-39.4964 c -32.81244,-48.02268 -62.60912,-74.73464 -107.291,-96.18365 -28.05386,-13.46692 -41.04234,-16.22938 -76.10966,-16.18739 -70.96307,0.085 -122.42063,32.44769 -151.06028,95.00493 -33.00942,72.10206 4.58334,161.34572 83.40725,198.00535 37.59152,17.48317 109.43517,13.76985 151.54669,-7.83286 z m 494.552,5.69774 c 54.83829,-25.53447 86.97349,-70.68144 91.31879,-128.29421 3.3365,-44.23847 -11.0868,-84.95636 -40.4978,-114.32799 -33.9729,-33.92742 -60.2892,-44.77846 -114.72914,-47.30642 -42.2478,-1.96182 -49.67751,-0.63058 -82.68424,14.81511 -41.74621,19.5354 -94.98266,69.98617 -116.3476,110.25948 l -13.74971,25.91846 11.20742,21.0348 c 14.47115,27.16046 71.35269,88.12297 97.03215,103.99373 50.57769,31.25875 119.04566,36.91138 168.45013,13.90704 z"
     id="path255" /><path
     style="fill:#ffffff;stroke-width:5.63775"
     d="m 890.76493,713.17572 v -25.36989 h -25.36989 -25.36988 v -22.55101 -22.55101 h 25.36988 25.36989 v -25.36989 -25.36988 h 22.55101 22.55101 v 25.36988 25.36989 h 25.36989 25.36989 v 22.55101 22.55101 h -25.36989 -25.36989 v 25.36989 25.36989 h -22.55101 -22.55101 z"
     id="path257" /><path
     style="fill:#ffffff;stroke-width:5.63775"
     d="m 343.90292,665.25482 v -22.55101 h 73.29078 73.29079 v 22.55101 22.55101 H 417.1937 343.90292 Z"
     id="path259" /><path
     style="fill:#ffffff;stroke-width:5.63775"
     d="M 344.0396,893.00261 C 257.0916,869.63757 189.95764,798.53035 171.56541,710.32071 135.8096,538.83491 299.8287,391.1743 475.30034,436.87886 c 54.49148,14.19323 88.38675,35.28479 140.85496,87.64792 l 49.56114,49.4619 49.09953,-49.00041 c 27.00472,-26.95023 61.9744,-55.80314 77.71033,-64.11758 156.64902,-82.76896 338.6493,0.96682 370.1393,170.29592 12.8242,68.95857 -16.6309,151.85457 -71.9096,202.37615 -79.5715,72.72389 -189.80156,87.52414 -289.83091,38.9147 -26.65254,-12.95184 -50.7789,-31.79221 -86.21232,-67.32357 l -49.20272,-49.3387 -49.45795,49.3633 c -27.20187,27.14981 -62.33282,56.16602 -78.06878,64.48046 -59.4438,31.40845 -131.64137,40.10581 -193.94372,23.36366 z M 491.99423,798.67395 C 530.39098,779.83563 570.65181,742.21304 600.465,697.31113 l 21.4783,-32.34867 -26.98669,-39.4964 c -33.26284,-48.68186 -62.81254,-74.9441 -109.03782,-96.90713 -32.67035,-15.52268 -39.34141,-16.69513 -81.74742,-14.36724 -53.26948,2.92425 -80.20937,14.41778 -111.79647,47.69644 -33.03273,34.80168 -41.27357,55.45092 -41.25232,103.36669 0.0254,57.22578 17.16909,88.16715 71.58534,129.19894 37.16794,28.02595 116.72252,30.00919 169.28631,4.22019 z m 503.06913,3.35789 C 1109.8146,742.23475 1111.284,587.50629 997.63992,530.71767 967.19899,515.50615 956.20453,513.0355 918.95369,513.0355 c -36.93923,0 -48.32969,2.51282 -77.52755,17.10316 -39.25545,19.61619 -95.63275,73.66776 -115.08694,110.33925 l -13.02729,24.5567 11.20742,21.25167 c 6.16409,11.68843 30.23482,40.55468 53.49055,64.14723 54.26692,55.0529 83.87256,67.98058 149.40044,65.23764 31.86492,-1.33384 51.72058,-5.33689 67.65304,-13.63931 z"
     id="path261" /></svg>
