<?xml version="1.0" encoding="UTF-8" standalone="no"?>
<!-- Created with Inkscape (http://www.inkscape.org/) -->

<svg
   version="1.1"
   id="svg237"
   xml:space="preserve"
   width="120"
   height="117.04211"
   sodipodi:docname="GitHub.svg"
   inkscape:version="1.2.2 (b0a8486541, 2022-12-01)"
   xmlns:inkscape="http://www.inkscape.org/namespaces/inkscape"
   xmlns:sodipodi="http://sodipodi.sourceforge.net/DTD/sodipodi-0.dtd"
   xmlns="http://www.w3.org/2000/svg"
   xmlns:svg="http://www.w3.org/2000/svg"><defs
     id="defs241" /><sodipodi:namedview
     id="namedview239"
     pagecolor="#ffffff"
     bordercolor="#000000"
     borderopacity="0.25"
     inkscape:showpageshadow="2"
     inkscape:pageopacity="0.0"
     inkscape:pagecheckerboard="0"
     inkscape:deskcolor="#d1d1d1"
     showgrid="false"
     inkscape:zoom="4.0327367"
     inkscape:cx="59.884891"
     inkscape:cy="58.645039"
     inkscape:window-width="1440"
     inkscape:window-height="900"
     inkscape:window-x="0"
     inkscape:window-y="0"
     inkscape:window-maximized="1"
     inkscape:current-layer="svg237" /><inkscape:clipboard
     style="font-variation-settings:normal;opacity:1;vector-effect:none;fill:#000000;fill-opacity:1;stroke-width:1;stroke-linecap:butt;stroke-linejoin:miter;stroke-miterlimit:4;stroke-dasharray:none;stroke-dashoffset:0;stroke-opacity:1;-inkscape-stroke:none;stop-color:#000000;stop-opacity:1"
     min="2,2"
     max="62,60.521053"
     geom-min="2,2"
     geom-max="62,60.521053" /><g
     id="g243"
     transform="matrix(2,0,0,2,-4,-4)"><path
       fill-rule="evenodd"
       clip-rule="evenodd"
       fill="#000000"
       d="M 31.998,2 C 15.433,2 2,15.431 2,32.002 2,45.255 10.595,56.5 22.517,60.467 c 1.5,0.275 2.048,-0.651 2.048,-1.446 0,-0.712 -0.026,-2.599 -0.041,-5.102 -8.345,1.813 -10.106,-4.021 -10.106,-4.021 -1.364,-3.466 -3.331,-4.388 -3.331,-4.388 -2.724,-1.861 0.206,-1.824 0.206,-1.824 3.011,0.212 4.595,3.092 4.595,3.092 2.676,4.584 7.021,3.261 8.731,2.493 0.273,-1.939 1.048,-3.261 1.905,-4.011 -6.662,-0.757 -13.665,-3.331 -13.665,-14.827 0,-3.275 1.169,-5.953 3.088,-8.05 -0.308,-0.759 -1.338,-3.809 0.294,-7.939 0,0 2.519,-0.807 8.25,3.075 2.393,-0.665 4.959,-0.998 7.511,-1.01 2.548,0.012 5.114,0.344 7.511,1.01 5.727,-3.882 8.242,-3.075 8.242,-3.075 1.637,4.13 0.607,7.18 0.299,7.939 1.923,2.097 3.084,4.775 3.084,8.05 0,11.525 -7.014,14.061 -13.697,14.804 1.077,0.926 2.037,2.757 2.037,5.556 0,4.011 -0.037,7.246 -0.037,8.23 0,0.802 0.54,1.736 2.063,1.443 C 53.412,56.488 62,45.251 62,32.002 62,15.431 48.567,2 31.998,2 Z"
       id="path2" /></g></svg>
