<?xml version="1.0" encoding="UTF-8" standalone="no"?>
<!-- Created with Inkscape (http://www.inkscape.org/) -->

<svg
   version="1.1"
   id="svg2637"
   xml:space="preserve"
   width="384.10706"
   height="369.97083"
   sodipodi:docname="GitLab.svg"
   inkscape:version="1.2.2 (b0a8486541, 2022-12-01)"
   xmlns:inkscape="http://www.inkscape.org/namespaces/inkscape"
   xmlns:sodipodi="http://sodipodi.sourceforge.net/DTD/sodipodi-0.dtd"
   xmlns="http://www.w3.org/2000/svg"
   xmlns:svg="http://www.w3.org/2000/svg"><defs
     id="defs2641" /><sodipodi:namedview
     id="namedview2639"
     pagecolor="#ffffff"
     bordercolor="#000000"
     borderopacity="0.25"
     inkscape:showpageshadow="2"
     inkscape:pageopacity="0.0"
     inkscape:pagecheckerboard="0"
     inkscape:deskcolor="#d1d1d1"
     showgrid="false"
     inkscape:zoom="1.2757763"
     inkscape:cx="192.82378"
     inkscape:cy="185.37733"
     inkscape:window-width="1440"
     inkscape:window-height="900"
     inkscape:window-x="0"
     inkscape:window-y="0"
     inkscape:window-maximized="1"
     inkscape:current-layer="g2643" /><inkscape:clipboard
     style="font-variation-settings:normal;opacity:1;vector-effect:none;fill:#fc6d26;fill-opacity:1;stroke-width:1;stroke-linecap:butt;stroke-linejoin:miter;stroke-miterlimit:4;stroke-dasharray:none;stroke-dashoffset:0;stroke-opacity:1;-inkscape-stroke:none;stop-color:#000000;stop-opacity:1"
     min="93.973245,97.517263"
     max="286.02677,282.50268"
     geom-min="93.973245,97.517263"
     geom-max="286.02677,282.50268" /><g
     id="g2643"
     transform="translate(2.0535178,-5.0245573)"><g
       id="LOGO"><path
         class="cls-1"
         d="m 375.65999,151.45003 -0.54,-1.38 -52.28,-136.439999 a 13.62,13.62 0 0 0 -5.38,-6.4800005 14,14 0 0 0 -16,0.86 14,14 0 0 0 -4.64,7.0400005 l -35.3,107.999999 h -142.94 L 83.279993,15.050031 a 13.72,13.72 0 0 0 -4.64,-7.0600005 14,14 0 0 0 -16,-0.86 13.74,13.74 0 0 0 -5.38,6.4800005 L 4.8799931,149.99003 l -0.52,1.38 a 97.08,97.08 0 0 0 32.1999999,112.2 l 0.18,0.14 0.48,0.34 79.639997,59.64 39.4,29.82 24,18.12 a 16.14,16.14 0 0 0 19.52,0 l 24,-18.12 39.4,-29.82 80.12,-60 0.2,-0.16 a 97.12,97.12 0 0 0 32.16,-112.08 z"
         id="path6"
         style="fill:#e24329;stroke-width:2" /><path
         class="cls-2"
         d="m 375.65999,151.45003 -0.54,-1.38 a 176.6,176.6 0 0 0 -70.3,31.6 l -114.82,86.82 c 39.1,29.58 73.14,55.28 73.14,55.28 l 80.12,-60 0.2,-0.16 a 97.12,97.12 0 0 0 32.2,-112.16 z"
         id="path8"
         style="fill:#fc6d26;stroke-width:2" /><path
         class="cls-3"
         d="m 116.85999,323.77003 39.4,29.82 24,18.12 a 16.14,16.14 0 0 0 19.52,0 l 24,-18.12 39.4,-29.82 c 0,0 -34.08,-25.78 -73.18,-55.28 -39.1,29.5 -73.14,55.28 -73.14,55.28 z"
         id="path10"
         style="fill:#fca326;stroke-width:2" /><path
         class="cls-2"
         d="m 75.159993,181.67003 a 176.38,176.38 0 0 0 -70.2799999,-31.68 l -0.52,1.38 a 97.08,97.08 0 0 0 32.1999999,112.2 l 0.18,0.14 0.48,0.34 79.639997,59.64 c 0,0 34,-25.7 73.14,-55.28 z"
         id="path12"
         style="fill:#fc6d26;stroke-width:2" /></g></g></svg>
