<?xml version="1.0" encoding="UTF-8" standalone="no"?>
<!-- Created with Inkscape (http://www.inkscape.org/) -->

<svg
   version="1.1"
   id="svg131"
   xml:space="preserve"
   width="300.5907"
   height="195.61397"
   xmlns:inkscape="http://www.inkscape.org/namespaces/inkscape"
   xmlns:sodipodi="http://sodipodi.sourceforge.net/DTD/sodipodi-0.dtd"
   xmlns="http://www.w3.org/2000/svg"
   xmlns:svg="http://www.w3.org/2000/svg"><defs
     id="defs135" /><sodipodi:namedview
     id="namedview133"
     pagecolor="#ffffff"
     bordercolor="#000000"
     borderopacity="0.25"
     inkscape:showpageshadow="2"
     inkscape:pageopacity="0.0"
     inkscape:pagecheckerboard="0"
     inkscape:deskcolor="#d1d1d1" /><inkscape:clipboard
     style="font-variation-settings:normal;opacity:1;vector-effect:none;fill:#231f20;fill-opacity:1;stroke-width:1;stroke-linecap:butt;stroke-linejoin:miter;stroke-miterlimit:4;stroke-dasharray:none;stroke-dashoffset:0;stroke-opacity:1;-inkscape-stroke:none;stop-color:#000000;stop-opacity:1"
     min="-4.4408921e-15,-0.032211156"
     max="300.59071,195.58176"
     geom-min="-4.4408921e-15,-0.032211156"
     geom-max="300.59071,195.58176" /><g
     id="g137"
     transform="translate(0,0.03221116)"><path
       class="cls-1"
       d="m 299.2,3.15 a 4.36,4.36 0 0 0 -2.92,-1 c -2.9,0 -6.65,2 -8.66,3 l -0.81,0.41 A 27.66,27.66 0 0 1 276,8.34 c -3.86,0.12 -7.19,0.35 -11.5,0.79 -25.66,2.64 -37.05,22.28 -48.06,41.27 -6,10.33 -12.18,21 -20.67,29.28 a 54.92,54.92 0 0 1 -5.59,4.74 c -8.78,6.55 -19.81,11.17 -28.43,14.47 -8.26,3.16 -17.28,6 -26,8.74 -8,2.52 -15.51,4.89 -22.44,7.46 -3.13,1.17 -5.79,2 -8.13,2.83 -6.31,2.11 -10.87,3.62 -17.51,8.17 -2.59,1.77 -5.19,3.7 -7,5.14 a 73.46,73.46 0 0 0 -13.87,14.62 86.19,86.19 0 0 1 -11.6,14 c -1.4,1.38 -3.89,2 -7.62,2 -4.37,0 -9.67,-0.9 -15.28,-1.85 -5.77,-1 -11.75,-2 -16.87,-2 -4.17,0 -7.35,0.67 -9.74,2.06 0,0 -4,2.34 -5.69,5.36 l 1.66,0.75 a 34.78,34.78 0 0 1 7.1,5.08 35,35 0 0 0 7.37,5.24 6.58,6.58 0 0 1 2.27,1.52 c -0.7,1 -1.73,2.34 -2.8,3.75 -5.92,7.74 -9.37,12.64 -7.39,15.3 a 6.15,6.15 0 0 0 3,0.7 c 12.9,0 19.82,-3.35 28.59,-7.6 2.57,-1.16 5.2,-2.43 8.2,-3.73 5.12,-2.22 10.64,-5.77 16.48,-9.52 7.74,-5 15.74,-10.12 23.49,-12.6 a 63.7,63.7 0 0 1 19.71,-2.78 c 8.23,0 16.83,1.11 25.15,2.17 6.21,0.8 12.63,1.62 18.93,2 2.45,0.14 4.72,0.21 6.92,0.21 a 79.63,79.63 0 0 0 8.83,-0.46 l 0.7,-0.25 c 4.42,-2.71 6.49,-8.54 8.5,-14.18 1.29,-3.63 2.37,-6.88 4.05,-9 a 2.68,2.68 0 0 1 0.34,-0.27 0.41,0.41 0 0 1 0.5,0.08 c 0,0 0,0 0,0.16 -1.06,22.05 -9.9,36 -18.88,48.48 l -6,6.43 c 0,0 8.39,0 13.16,-1.84 17.42,-5.21 30.58,-16.69 40.15,-35 a 148.34,148.34 0 0 0 6.32,-14.44 c 0.16,-0.41 1.68,-1.17 1.53,1 0,0.63 -0.09,1.33 -0.14,2 v 0 c 0,0.43 -0.06,0.87 -0.08,1.31 -0.25,3.05 -1,9.58 -1,9.58 l 5.38,-2.89 c 13,-8.22 23,-24.73 30.56,-50.47 3.16,-10.72 5.47,-21.36 7.51,-30.76 2.44,-11.23 4.55,-20.93 7,-24.68 3.78,-5.88 9.55,-9.87 15.13,-13.72 l 2.28,-1.59 c 7,-4.92 14,-10.62 15.54,-21.22 v -0.23 c 1.16,-7.86 0.21,-9.88 -0.86,-10.8 z"
       transform="translate(0,-2.18)"
       id="path22"
       style="fill:#231f20" /></g></svg>

