<?xml version="1.0" encoding="UTF-8" standalone="no"?>
<!-- Created with Inkscape (http://www.inkscape.org/) -->

<svg
   version="1.1"
   id="svg1260"
   xml:space="preserve"
   width="125.9131"
   height="143.32407"
   xmlns:inkscape="http://www.inkscape.org/namespaces/inkscape"
   xmlns:sodipodi="http://sodipodi.sourceforge.net/DTD/sodipodi-0.dtd"
   xmlns="http://www.w3.org/2000/svg"
   xmlns:svg="http://www.w3.org/2000/svg"><defs
     id="defs1264"><clipPath
       id="a"><path
         d="m 239.03,226.605 -42.13,24.317 c -1.578,0.91 -2.546,2.59 -2.546,4.406 v 48.668 c 0,1.817 0.968,3.496 2.546,4.406 l 42.133,24.336 c 1.575,0.907 3.517,0.907 5.09,0 l 42.126,-24.336 c 1.57,-0.91 2.54,-2.59 2.54,-4.406 v -48.668 c 0,-1.816 -0.97,-3.496 -2.55,-4.406 l -42.12,-24.317 c -0.79,-0.453 -1.67,-0.68 -2.55,-0.68 -0.88,0 -1.76,0.227 -2.55,0.68"
         id="path2" /></clipPath><linearGradient
       id="b"
       x1="-0.34799999"
       x2="1.251"
       gradientTransform="matrix(-38.064915,77.652126,-77.652126,-38.064915,258.72325,244.62943)"
       gradientUnits="userSpaceOnUse"><stop
         offset=".3"
         stop-color="#3E863D"
         id="stop5" /><stop
         offset=".5"
         stop-color="#55934F"
         id="stop7" /><stop
         offset=".8"
         stop-color="#5AAD45"
         id="stop9" /></linearGradient><clipPath
       id="c"><path
         d="m 195.398,307.086 c 0.403,0.523 0.907,0.976 1.5,1.316 l 36.14,20.875 6.02,3.46 c 0.9,0.52 1.926,0.74 2.934,0.665 0.336,-0.027 0.672,-0.09 1,-0.183 l 44.434,-81.36 c -0.34,-0.37 -0.738,-0.68 -1.184,-0.94 l -27.586,-15.93 -14.582,-8.39 c -0.414,-0.24 -0.863,-0.41 -1.32,-0.53 z m 0,0"
         id="path12" /></clipPath><linearGradient
       id="d"
       x1="-0.456"
       x2="0.58200002"
       gradientTransform="matrix(106.8057,-78.916731,78.916731,106.8057,235.18824,285.39477)"
       gradientUnits="userSpaceOnUse"><stop
         offset=".57"
         stop-color="#3E863D"
         id="stop15" /><stop
         offset=".72"
         stop-color="#619857"
         id="stop17" /><stop
         offset="1"
         stop-color="#76AC64"
         id="stop19" /></linearGradient><clipPath
       id="e"><path
         d="m 241.066,225.953 c -0.707,0.07 -1.398,0.29 -2.035,0.652 l -42.01,24.247 45.3,82.51 c 0.63,-0.09 1.25,-0.3 1.81,-0.624 l 42.13,-24.336 c 1.3,-0.754 2.19,-2.03 2.46,-3.476 l -46.18,-78.89 c -0.34,-0.067 -0.68,-0.102 -1.03,-0.102 -0.14,0 -0.28,0.007 -0.42,0.02"
         id="path22" /></clipPath><linearGradient
       id="f"
       x1="0.043000001"
       x2="0.98400003"
       gradientTransform="matrix(97.417,0,0,97.417,192.862,279.652)"
       gradientUnits="userSpaceOnUse"><stop
         offset=".16"
         stop-color="#6BBF47"
         id="stop25" /><stop
         offset=".38"
         stop-color="#79B461"
         id="stop27" /><stop
         offset=".47"
         stop-color="#75AC64"
         id="stop29" /><stop
         offset=".7"
         stop-color="#659E5A"
         id="stop31" /><stop
         offset=".9"
         stop-color="#3E863D"
         id="stop33" /></linearGradient></defs><sodipodi:namedview
     id="namedview1262"
     pagecolor="#ffffff"
     bordercolor="#000000"
     borderopacity="0.25"
     inkscape:showpageshadow="2"
     inkscape:pageopacity="0.0"
     inkscape:pagecheckerboard="0"
     inkscape:deskcolor="#d1d1d1" /><inkscape:clipboard
     min="154.7311,82.545183"
     max="280.64421,225.86925"
     geom-min="87.685892,24.113289"
     geom-max="347.26542,284.58748" /><g
     id="g1286"
     transform="matrix(1.3333309,0,0,1.3333309,-154.73038,-82.545183)"><g
       clip-path="url(#a)"
       transform="translate(-78.306,-164.016)"
       id="g48"><path
         fill="url(#b)"
         d="m 331.363,246.793 -118.715,-58.19 -60.87,124.174 118.712,58.193 z m 0,0"
         id="path46"
         style="fill:url(#b)" /></g><g
       clip-path="url(#c)"
       transform="translate(-78.306,-164.016)"
       id="g52"><path
         fill="url(#d)"
         d="m 144.07,264.004 83.825,113.453 110.86,-81.906 -83.83,-113.45 z m 0,0"
         id="path50"
         style="fill:url(#d)" /></g><g
       clip-path="url(#e)"
       transform="translate(-78.306,-164.016)"
       id="g56"><path
         fill="url(#f)"
         d="m 197.02,225.934 v 107.43 h 91.683 v -107.43 z m 0,0"
         id="path54"
         style="fill:url(#f)" /></g></g></svg>

