<?xml version="1.0" encoding="UTF-8" standalone="no"?>
<!-- Created with Inkscape (http://www.inkscape.org/) -->

<svg
   version="1.1"
   id="svg360"
   xml:space="preserve"
   width="131.65712"
   height="131.65585"
   sodipodi:docname="VisualStudio2022.svg"
   inkscape:version="1.2.2 (b0a8486541, 2022-12-01)"
   xmlns:inkscape="http://www.inkscape.org/namespaces/inkscape"
   xmlns:sodipodi="http://sodipodi.sourceforge.net/DTD/sodipodi-0.dtd"
   xmlns="http://www.w3.org/2000/svg"
   xmlns:svg="http://www.w3.org/2000/svg"><defs
     id="defs364"><clipPath
       id="clip0_1152_114995"><rect
         width="65.828598"
         height="65.828598"
         fill="#ffffff"
         transform="translate(3.08594,3.78711)"
         id="rect121"
         x="0"
         y="0" /></clipPath><clipPath
       id="clip1_1152_114995"><rect
         width="65.828598"
         height="65.828598"
         fill="#ffffff"
         transform="translate(3.08594,3.78711)"
         id="rect124"
         x="0"
         y="0" /></clipPath><mask
       id="mask0_1152_114995"
       maskUnits="userSpaceOnUse"
       x="3"
       y="3"
       width="66"
       height="67"><path
         d="M 15.1542,59.4668 4.18345,51.2382 C 3.84137,50.9841 3.56381,50.6531 3.37317,50.272 3.18253,49.8909 3.08415,49.4704 3.08596,49.0442 V 24.3585 c -0.00181,-0.4261 0.09657,-0.8467 0.28721,-1.2278 0.19064,-0.3811 0.4682,-0.712 0.81028,-0.9661 L 15.1542,13.936 c -0.2947,0.2768 -0.5174,0.6212 -0.6488,1.0036 -0.1314,0.3823 -0.1675,0.7909 -0.1052,1.1904 v 41.1428 c -0.0623,0.3995 -0.0262,0.8081 0.1052,1.1904 0.1314,0.3823 0.3541,0.7268 0.6488,1.0036 z"
         fill="#ffffff"
         id="path2" /><path
         d="m 67.6936,15.2115 c -0.452,-0.297 -0.9814,-0.4544 -1.5223,-0.4526 -0.3504,-0.0028 -0.6979,0.0635 -1.0227,0.1952 -0.3247,0.1316 -0.6203,0.3261 -0.8699,0.5721 L 64.0874,15.7186 42.1994,36.7014 30.089,48.3171 18.8848,59.0553 18.6925,59.2477 c -0.2493,0.2464 -0.5448,0.4412 -0.8696,0.5731 -0.3248,0.1318 -0.6725,0.1982 -1.023,0.1952 -0.5934,-0.0012 -1.1706,-0.1938 -1.6457,-0.5492 L 4.18345,51.2382 c 0.55736,0.4187 1.25335,0.6093 1.94626,0.5328 0.69291,-0.0764 1.33064,-0.4141 1.78333,-0.9442 L 20.0913,36.688 30.089,25.0857 47.6025,4.74678 C 47.8568,4.44557 48.1739,4.2036 48.5316,4.03783 48.8892,3.87206 49.2788,3.78649 49.673,3.78712 50.2139,3.78538 50.7433,3.94277 51.1953,4.2397 Z"
         fill="#ffffff"
         id="path4" /><path
         d="M 67.6936,58.1913 51.2365,69.1631 c -0.5599,0.3656 -1.2328,0.5169 -1.8953,0.4263 -0.6624,-0.0907 -1.2699,-0.4174 -1.7109,-0.92 L 30.089,48.3171 20.0913,36.688 7.91304,22.5616 C 7.45631,22.0368 6.81799,21.7043 6.12621,21.6306 5.43444,21.557 4.74042,21.7478 4.18345,22.1646 L 15.1542,13.936 c 0.4751,-0.3554 1.0523,-0.5481 1.6457,-0.5493 0.3505,-0.0029 0.6982,0.0634 1.023,0.1953 0.3248,0.1319 0.6203,0.3266 0.8696,0.5731 l 0.1923,0.1923 11.2042,10.7383 12.1104,11.6157 21.888,20.9828 0.1913,0.1924 c 0.2496,0.246 0.5452,0.4404 0.8699,0.5721 0.3248,0.1317 0.6723,0.198 1.0227,0.1952 0.5409,0.0017 1.0703,-0.1557 1.5223,-0.4526 z"
         fill="#ffffff"
         id="path6" /><path
         d="m 68.9145,17.5011 v 38.4006 c 4e-4,0.4526 -0.1107,0.8984 -0.3237,1.2977 -0.213,0.3994 -0.5211,0.7401 -0.8972,0.9919 L 51.2365,69.1631 c 0.376,-0.2521 0.6842,-0.593 0.8971,-0.9925 0.213,-0.3995 0.3242,-0.8454 0.3238,-1.2981 V 6.53031 C 52.4513,6.07422 52.333,5.62664 52.1129,5.22714 51.8927,4.82763 51.5776,4.4885 51.1953,4.2397 l 16.4983,10.9718 c 0.3751,0.2528 0.6825,0.5937 0.8954,0.9928 0.2128,0.3992 0.3246,0.8444 0.3255,1.2968 z"
         fill="#ffffff"
         id="path8" /></mask><filter
       id="filter0_dd_1152_114995"
       x="-1.30212"
       y="-0.327176"
       width="74.481201"
       height="67.199898"
       filterUnits="userSpaceOnUse"
       color-interpolation-filters="sRGB"><feFlood
         flood-opacity="0"
         result="BackgroundImageFix"
         id="feFlood31" /><feColorMatrix
         in="SourceAlpha"
         type="matrix"
         values="0 0 0 0 0 0 0 0 0 0 0 0 0 0 0 0 0 0 127 0"
         result="hardAlpha"
         id="feColorMatrix33" /><feOffset
         dy="0.260571"
         id="feOffset35" /><feGaussianBlur
         stdDeviation="0.260571"
         id="feGaussianBlur37" /><feColorMatrix
         type="matrix"
         values="0 0 0 0 0 0 0 0 0 0 0 0 0 0 0 0 0 0 0.24 0"
         id="feColorMatrix39" /><feBlend
         mode="normal"
         in2="BackgroundImageFix"
         result="effect1_dropShadow_1152_114995"
         id="feBlend41" /><feColorMatrix
         in="SourceAlpha"
         type="matrix"
         values="0 0 0 0 0 0 0 0 0 0 0 0 0 0 0 0 0 0 127 0"
         result="hardAlpha"
         id="feColorMatrix43" /><feOffset
         dy="1.37143"
         id="feOffset45" /><feGaussianBlur
         stdDeviation="2.74286"
         id="feGaussianBlur47" /><feColorMatrix
         type="matrix"
         values="0 0 0 0 0 0 0 0 0 0 0 0 0 0 0 0 0 0 0.22 0"
         id="feColorMatrix49" /><feBlend
         mode="normal"
         in2="effect1_dropShadow_1152_114995"
         result="effect2_dropShadow_1152_114995"
         id="feBlend51" /><feBlend
         mode="normal"
         in="SourceGraphic"
         in2="effect2_dropShadow_1152_114995"
         result="shape"
         id="feBlend53" /></filter><linearGradient
       id="paint0_linear_1152_114995"
       x1="56.571499"
       y1="3.7871101"
       x2="7.6907802"
       y2="52.984501"
       gradientUnits="userSpaceOnUse"><stop
         stop-color="#7252AA"
         id="stop106" /><stop
         offset="1"
         stop-color="#7252AA"
         id="stop108" /></linearGradient><filter
       id="filter1_dd_1152_114995"
       x="-1.30212"
       y="9.2724304"
       width="74.481201"
       height="67.199898"
       filterUnits="userSpaceOnUse"
       color-interpolation-filters="sRGB"><feFlood
         flood-opacity="0"
         result="BackgroundImageFix"
         id="feFlood56" /><feColorMatrix
         in="SourceAlpha"
         type="matrix"
         values="0 0 0 0 0 0 0 0 0 0 0 0 0 0 0 0 0 0 127 0"
         result="hardAlpha"
         id="feColorMatrix58" /><feOffset
         dy="0.260571"
         id="feOffset60" /><feGaussianBlur
         stdDeviation="0.260571"
         id="feGaussianBlur62" /><feColorMatrix
         type="matrix"
         values="0 0 0 0 0 0 0 0 0 0 0 0 0 0 0 0 0 0 0.24 0"
         id="feColorMatrix64" /><feBlend
         mode="normal"
         in2="BackgroundImageFix"
         result="effect1_dropShadow_1152_114995"
         id="feBlend66" /><feColorMatrix
         in="SourceAlpha"
         type="matrix"
         values="0 0 0 0 0 0 0 0 0 0 0 0 0 0 0 0 0 0 127 0"
         result="hardAlpha"
         id="feColorMatrix68" /><feOffset
         dy="1.37143"
         id="feOffset70" /><feGaussianBlur
         stdDeviation="2.74286"
         id="feGaussianBlur72" /><feColorMatrix
         type="matrix"
         values="0 0 0 0 0 0 0 0 0 0 0 0 0 0 0 0 0 0 0.22 0"
         id="feColorMatrix74" /><feBlend
         mode="normal"
         in2="effect1_dropShadow_1152_114995"
         result="effect2_dropShadow_1152_114995"
         id="feBlend76" /><feBlend
         mode="normal"
         in="SourceGraphic"
         in2="effect2_dropShadow_1152_114995"
         result="shape"
         id="feBlend78" /></filter><linearGradient
       id="paint1_linear_1152_114995"
       x1="9.25776"
       y1="15.7867"
       x2="55.200298"
       y2="67.214699"
       gradientUnits="userSpaceOnUse"><stop
         stop-color="#AE7FE2"
         id="stop111" /><stop
         offset="1"
         stop-color="#9A70D4"
         id="stop113" /></linearGradient><filter
       id="filter2_dd_1152_114995"
       x="34.738201"
       y="-12.2169"
       width="50.632999"
       height="97.838097"
       filterUnits="userSpaceOnUse"
       color-interpolation-filters="sRGB"><feFlood
         flood-opacity="0"
         result="BackgroundImageFix"
         id="feFlood81" /><feColorMatrix
         in="SourceAlpha"
         type="matrix"
         values="0 0 0 0 0 0 0 0 0 0 0 0 0 0 0 0 0 0 127 0"
         result="hardAlpha"
         id="feColorMatrix83" /><feOffset
         id="feOffset85" /><feGaussianBlur
         stdDeviation="0.137143"
         id="feGaussianBlur87" /><feColorMatrix
         type="matrix"
         values="0 0 0 0 0 0 0 0 0 0 0 0 0 0 0 0 0 0 0.24 0"
         id="feColorMatrix89" /><feBlend
         mode="normal"
         in2="BackgroundImageFix"
         result="effect1_dropShadow_1152_114995"
         id="feBlend91" /><feColorMatrix
         in="SourceAlpha"
         type="matrix"
         values="0 0 0 0 0 0 0 0 0 0 0 0 0 0 0 0 0 0 127 0"
         result="hardAlpha"
         id="feColorMatrix93" /><feOffset
         id="feOffset95" /><feGaussianBlur
         stdDeviation="8.22857"
         id="feGaussianBlur97" /><feColorMatrix
         type="matrix"
         values="0 0 0 0 0 0 0 0 0 0 0 0 0 0 0 0 0 0 0.3 0"
         id="feColorMatrix99" /><feBlend
         mode="normal"
         in2="effect1_dropShadow_1152_114995"
         result="effect2_dropShadow_1152_114995"
         id="feBlend101" /><feBlend
         mode="normal"
         in="SourceGraphic"
         in2="effect2_dropShadow_1152_114995"
         result="shape"
         id="feBlend103" /></filter><linearGradient
       id="paint2_linear_1152_114995"
       x1="59.859798"
       y1="2.91645"
       x2="59.859798"
       y2="69.108597"
       gradientUnits="userSpaceOnUse"><stop
         stop-color="#D59DFF"
         id="stop116" /><stop
         offset="1"
         stop-color="#C18EF1"
         id="stop118" /></linearGradient></defs><sodipodi:namedview
     id="namedview362"
     pagecolor="#ffffff"
     bordercolor="#000000"
     borderopacity="0.25"
     inkscape:showpageshadow="2"
     inkscape:pageopacity="0.0"
     inkscape:pagecheckerboard="0"
     inkscape:deskcolor="#d1d1d1"
     showgrid="false"
     inkscape:zoom="0.5"
     inkscape:cx="241"
     inkscape:cy="13"
     inkscape:window-width="1440"
     inkscape:window-height="900"
     inkscape:window-x="0"
     inkscape:window-y="0"
     inkscape:window-maximized="1"
     inkscape:current-layer="svg360" /><inkscape:clipboard
     style="font-variation-settings:normal;opacity:1;vector-effect:none;fill:none;fill-opacity:1;stroke-width:1;stroke-linecap:butt;stroke-linejoin:miter;stroke-miterlimit:4;stroke-dasharray:none;stroke-dashoffset:0;stroke-opacity:1;-inkscape-stroke:none;stop-color:#000000;stop-opacity:1"
     min="3.08594,3.78711"
     max="68.914501,69.615034"
     geom-min="3.0859355,3.7871057"
     geom-max="68.914501,69.615081" /><g
     id="g423"
     transform="matrix(2,0,0,2,-6.17188,-7.57422)"><g
       clip-path="url(#clip0_1152_114995)"
       id="g29"><g
         clip-path="url(#clip1_1152_114995)"
         id="g27"><mask
           id="mask433"
           maskUnits="userSpaceOnUse"
           x="3"
           y="3"
           width="66"
           height="67"><path
             d="M 15.1542,59.4668 4.18345,51.2382 C 3.84137,50.9841 3.56381,50.6531 3.37317,50.272 3.18253,49.8909 3.08415,49.4704 3.08596,49.0442 V 24.3585 c -0.00181,-0.4261 0.09657,-0.8467 0.28721,-1.2278 0.19064,-0.3811 0.4682,-0.712 0.81028,-0.9661 L 15.1542,13.936 c -0.2947,0.2768 -0.5174,0.6212 -0.6488,1.0036 -0.1314,0.3823 -0.1675,0.7909 -0.1052,1.1904 v 41.1428 c -0.0623,0.3995 -0.0262,0.8081 0.1052,1.1904 0.1314,0.3823 0.3541,0.7268 0.6488,1.0036 z"
             fill="#ffffff"
             id="path425" /><path
             d="m 67.6936,15.2115 c -0.452,-0.297 -0.9814,-0.4544 -1.5223,-0.4526 -0.3504,-0.0028 -0.6979,0.0635 -1.0227,0.1952 -0.3247,0.1316 -0.6203,0.3261 -0.8699,0.5721 L 64.0874,15.7186 42.1994,36.7014 30.089,48.3171 18.8848,59.0553 18.6925,59.2477 c -0.2493,0.2464 -0.5448,0.4412 -0.8696,0.5731 -0.3248,0.1318 -0.6725,0.1982 -1.023,0.1952 -0.5934,-0.0012 -1.1706,-0.1938 -1.6457,-0.5492 L 4.18345,51.2382 c 0.55736,0.4187 1.25335,0.6093 1.94626,0.5328 0.69291,-0.0764 1.33064,-0.4141 1.78333,-0.9442 L 20.0913,36.688 30.089,25.0857 47.6025,4.74678 C 47.8568,4.44557 48.1739,4.2036 48.5316,4.03783 48.8892,3.87206 49.2788,3.78649 49.673,3.78712 50.2139,3.78538 50.7433,3.94277 51.1953,4.2397 Z"
             fill="#ffffff"
             id="path427" /><path
             d="M 67.6936,58.1913 51.2365,69.1631 c -0.5599,0.3656 -1.2328,0.5169 -1.8953,0.4263 -0.6624,-0.0907 -1.2699,-0.4174 -1.7109,-0.92 L 30.089,48.3171 20.0913,36.688 7.91304,22.5616 C 7.45631,22.0368 6.81799,21.7043 6.12621,21.6306 5.43444,21.557 4.74042,21.7478 4.18345,22.1646 L 15.1542,13.936 c 0.4751,-0.3554 1.0523,-0.5481 1.6457,-0.5493 0.3505,-0.0029 0.6982,0.0634 1.023,0.1953 0.3248,0.1319 0.6203,0.3266 0.8696,0.5731 l 0.1923,0.1923 11.2042,10.7383 12.1104,11.6157 21.888,20.9828 0.1913,0.1924 c 0.2496,0.246 0.5452,0.4404 0.8699,0.5721 0.3248,0.1317 0.6723,0.198 1.0227,0.1952 0.5409,0.0017 1.0703,-0.1557 1.5223,-0.4526 z"
             fill="#ffffff"
             id="path429" /><path
             d="m 68.9145,17.5011 v 38.4006 c 4e-4,0.4526 -0.1107,0.8984 -0.3237,1.2977 -0.213,0.3994 -0.5211,0.7401 -0.8972,0.9919 L 51.2365,69.1631 c 0.376,-0.2521 0.6842,-0.593 0.8971,-0.9925 0.213,-0.3995 0.3242,-0.8454 0.3238,-1.2981 V 6.53031 C 52.4513,6.07422 52.333,5.62664 52.1129,5.22714 51.8927,4.82763 51.5776,4.4885 51.1953,4.2397 l 16.4983,10.9718 c 0.3751,0.2528 0.6825,0.5937 0.8954,0.9928 0.2128,0.3992 0.3246,0.8444 0.3255,1.2968 z"
             fill="#ffffff"
             id="path431" /></mask><g
           mask="url(#mask0_1152_114995)"
           id="g25"><path
             d="M 15.1542,59.4682 4.18345,51.2397 C 3.84137,50.9856 3.56381,50.6546 3.37317,50.2735 3.18253,49.8924 3.08415,49.4718 3.08596,49.0457 V 24.36 c -0.00181,-0.4261 0.09657,-0.8467 0.28721,-1.2278 0.19064,-0.3811 0.4682,-0.712 0.81028,-0.9661 L 15.1542,13.9375 c -0.2947,0.2767 -0.5174,0.6212 -0.6488,1.0036 -0.1314,0.3823 -0.1675,0.7909 -0.1052,1.1903 v 41.1429 c -0.0623,0.3994 -0.0262,0.8081 0.1052,1.1904 0.1314,0.3823 0.3541,0.7268 0.6488,1.0035 z"
             fill="#5e438f"
             id="path11" /><g
             filter="url(#filter0_dd_1152_114995)"
             id="g15"><path
               d="m 67.6938,15.2115 c -0.4521,-0.297 -0.9815,-0.4544 -1.5223,-0.4526 -0.3504,-0.0028 -0.698,0.0635 -1.0227,0.1952 -0.3248,0.1316 -0.6204,0.3261 -0.8699,0.5721 L 64.0876,15.7186 52.4298,26.896 42.1996,36.7014 30.0892,48.3171 18.885,59.0554 18.6926,59.2477 c -0.2492,0.2465 -0.5448,0.4412 -0.8696,0.5731 -0.3248,0.1318 -0.6724,0.1982 -1.023,0.1952 -0.5933,-0.0011 -1.1705,-0.1938 -1.6457,-0.5492 L 4.18359,51.2382 c 0.55736,0.4187 1.25336,0.6093 1.94627,0.5328 0.69292,-0.0764 1.33065,-0.4141 1.78333,-0.9442 L 14.0579,43.6957 20.0915,36.688 30.0892,25.0858 47.6027,4.74678 C 47.857,4.44557 48.1741,4.2036 48.5317,4.03783 48.8894,3.87206 49.279,3.78649 49.6732,3.78712 50.214,3.78538 50.7434,3.94277 51.1955,4.2397 Z"
               fill="url(#paint0_linear_1152_114995)"
               id="path13"
               style="fill:url(#paint0_linear_1152_114995)" /></g><g
             filter="url(#filter1_dd_1152_114995)"
             id="g19"><path
               d="M 67.6938,58.1914 51.2366,69.1632 c -0.5598,0.3656 -1.2328,0.5169 -1.8952,0.4262 -0.6625,-0.0907 -1.27,-0.4173 -1.711,-0.92 L 30.0892,48.3171 20.0915,36.6881 14.0579,29.6938 7.91319,22.5617 C 7.45646,22.0369 6.81814,21.7043 6.12637,21.6307 5.43459,21.5571 4.74056,21.7478 4.18359,22.1646 L 15.1543,13.9361 c 0.4752,-0.3555 1.0524,-0.5481 1.6457,-0.5493 0.3506,-0.0029 0.6982,0.0634 1.023,0.1953 0.3248,0.1318 0.6204,0.3266 0.8696,0.5731 l 0.1924,0.1923 11.2042,10.7383 12.1104,11.6156 10.2446,9.8198 11.6434,11.1631 0.1913,0.1923 c 0.2495,0.2461 0.5451,0.4405 0.8699,0.5722 0.3247,0.1316 0.6723,0.198 1.0227,0.1952 0.5408,0.0017 1.0702,-0.1557 1.5223,-0.4526 z"
               fill="url(#paint1_linear_1152_114995)"
               id="path17"
               style="fill:url(#paint1_linear_1152_114995)" /></g><g
             filter="url(#filter2_dd_1152_114995)"
             id="g23"><path
               d="m 68.9145,17.5016 v 38.4007 c 4e-4,0.4526 -0.1108,0.8983 -0.3237,1.2977 -0.213,0.3994 -0.5211,0.7401 -0.8972,0.9919 L 51.2365,69.1637 c 0.376,-0.2521 0.6842,-0.593 0.8971,-0.9925 0.213,-0.3996 0.3242,-0.8454 0.3238,-1.2982 V 6.53086 C 52.4513,6.07477 52.333,5.6272 52.1129,5.22769 51.8927,4.82818 51.5776,4.48904 51.1953,4.24023 L 67.6936,15.212 c 0.3751,0.2528 0.6825,0.5937 0.8954,0.9929 0.2128,0.3991 0.3246,0.8444 0.3255,1.2967 z"
               fill="url(#paint2_linear_1152_114995)"
               id="path21"
               style="fill:url(#paint2_linear_1152_114995)" /></g></g></g></g></g></svg>
